<?xml version="1.0" standalone="no"?>
<!DOCTYPE svg PUBLIC "-//W3C//DTD SVG 20010904//EN"
 "http://www.w3.org/TR/2001/REC-SVG-20010904/DTD/svg10.dtd">
<svg version="1.0" xmlns="http://www.w3.org/2000/svg"
 width="1388.000000pt" height="662.000000pt" viewBox="0 0 1388.000000 662.000000"
 preserveAspectRatio="xMidYMid meet">

<g transform="translate(0.000000,662.000000) scale(0.100000,-0.100000)"
fill="#000000" stroke="none">
<path d="M10451 4881 c-24 -39 -40 -75 -36 -81 4 -6 2 -9 -4 -8 -10 3 -67 -83
-148 -222 -20 -36 -68 -114 -105 -175 -68 -110 -79 -132 -55 -119 7 4 9 3 4
-2 -5 -5 -13 -9 -19 -9 -6 0 -44 -54 -84 -120 -109 -177 -133 -226 -127 -258
l5 -27 613 0 c553 0 613 2 619 16 7 17 -42 110 -251 474 -33 58 -90 156 -127
218 -36 62 -66 114 -66 116 0 15 -152 262 -163 264 -8 2 -31 -24 -56 -67z m78
19 c11 -24 11 -24 -3 -6 -9 11 -16 24 -16 30 0 12 5 7 19 -24z m-628 -977
c-12 -20 -14 -14 -5 12 4 9 9 14 11 11 3 -2 0 -13 -6 -23z m1193 -21 c3 -5 -1
-9 -9 -9 -8 0 -12 4 -9 9 3 4 7 8 9 8 2 0 6 -4 9 -8z m-1184 -22 c0 -5 -2 -10
-4 -10 -3 0 -8 5 -11 10 -3 6 -1 10 4 10 6 0 11 -4 11 -10z m977 -6 c-3 -3
-12 -4 -19 -1 -8 3 -5 6 6 6 11 1 17 -2 13 -5z m151 -1 c-16 -2 -40 -2 -55 0
-16 2 -3 4 27 4 30 0 43 -2 28 -4z"/>
<path d="M2093 4353 c15 -2 37 -2 50 0 12 2 0 4 -28 4 -27 0 -38 -2 -22 -4z"/>
<path d="M2178 4353 c7 -3 16 -2 19 1 4 3 -2 6 -13 5 -11 0 -14 -3 -6 -6z"/>
<path d="M10808 3453 c-9 -10 -21 -36 -27 -58 -15 -54 -26 -215 -15 -215 5 0
10 39 11 86 3 91 14 148 37 179 12 16 16 17 30 6 24 -20 38 -84 39 -188 1 -51
5 -93 10 -93 9 0 9 88 -2 171 -14 109 -47 153 -83 112z"/>
<path d="M10188 3399 c-10 -5 -24 -31 -32 -58 -17 -58 -32 -251 -20 -251 5 0
10 41 11 91 3 152 32 230 81 215 31 -10 52 -77 59 -193 6 -105 6 -106 -15
-101 -12 4 -24 3 -26 -1 -3 -4 9 -8 26 -9 l31 -3 -5 108 c-9 166 -48 239 -110
202z"/>
<path d="M5730 3313 c-289 -5 -587 -24 -830 -54 -469 -58 -683 -141 -1045
-409 -92 -68 -108 -82 -331 -280 -71 -64 -162 -144 -202 -178 l-74 -63 -28 37
c-43 59 -137 131 -229 177 l-84 42 -116 -1 c-66 0 -145 -7 -183 -16 l-66 -15
-44 44 c-81 81 -273 249 -338 294 -84 60 -129 82 -218 109 -65 20 -88 22 -230
17 -120 -3 -176 -9 -237 -26 -86 -24 -305 -119 -305 -133 0 -17 -30 -7 -81 28
-79 54 -229 123 -295 136 -93 18 -268 15 -349 -6 -108 -28 -292 -126 -278
-149 3 -6 1 -7 -5 -3 -6 3 -21 -4 -33 -16 l-22 -23 6 30 c4 17 9 41 12 55 3
14 -8 -15 -25 -65 -44 -135 -79 -376 -80 -551 l0 -52 73 18 c121 30 472 77
750 101 175 14 635 7 877 -15 174 -15 271 -24 643 -61 83 -8 247 -24 362 -35
244 -24 333 -34 340 -41 2 -3 -23 -23 -57 -45 -100 -63 -181 -145 -223 -225
-50 -96 -62 -146 -80 -329 -9 -85 -24 -192 -35 -238 -13 -53 -20 -119 -20
-178 l0 -94 -45 0 c-48 0 -54 5 -98 70 -32 48 -94 81 -159 83 -43 1 -67 -5
-128 -35 -41 -20 -78 -34 -82 -30 -3 4 -21 43 -39 87 -28 66 -46 91 -104 148
-116 113 -229 167 -354 169 -84 1 -148 -19 -233 -74 l-48 -30 -47 39 c-122
101 -293 173 -408 173 -144 -1 -289 -59 -398 -160 -74 -68 -99 -108 -132 -213
-22 -68 -22 -68 -39 -45 -9 13 -7 4 5 -19 44 -83 175 -247 190 -237 5 3 7 -1
4 -8 -3 -7 23 -41 59 -77 58 -58 65 -62 87 -51 21 10 22 9 7 -3 -11 -9 -14
-18 -7 -28 8 -12 10 -12 19 1 9 13 10 12 8 -4 -2 -13 18 -35 67 -72 68 -52 94
-66 79 -42 -4 7 -3 8 5 4 6 -4 9 -11 6 -16 -11 -17 245 -161 365 -205 213 -78
363 -116 566 -145 130 -18 196 -20 974 -20 459 0 830 4 824 8 -6 4 -16 17 -22
29 -7 11 28 -18 76 -65 163 -161 330 -231 555 -232 221 0 422 79 547 214 l35
38 1909 -6 1910 -7 42 -39 c228 -210 594 -269 881 -140 201 91 370 282 424
480 12 44 18 56 18 36 l1 -29 208 6 c144 4 225 11 266 22 185 51 302 176 314
335 l5 68 61 5 c33 2 437 5 896 6 459 0 953 4 1098 8 302 7 277 -6 237 122
-59 186 -189 309 -405 381 -119 40 -198 20 -388 -98 l-73 -45 -47 22 c-76 34
-132 42 -219 30 -104 -13 -194 -43 -274 -90 l-66 -38 -104 102 c-117 115 -179
152 -283 169 -83 14 -170 0 -262 -42 -82 -37 -156 -88 -148 -102 4 -7 2 -8 -5
-4 -6 4 -18 2 -26 -4 -12 -10 -15 -9 -15 3 0 8 -19 52 -42 98 -30 60 -63 105
-119 163 -136 142 -305 226 -546 272 l-143 27 0 593 c0 327 -3 594 -7 594 -5
0 -7 -164 -5 -365 l2 -365 -30 0 c-17 0 -59 -10 -93 -22 l-62 -21 -55 52
c-225 216 -591 154 -774 -133 -50 -79 -74 -166 -44 -166 6 0 9 -2 6 -5 -8 -8
-129 35 -198 71 -36 19 -126 81 -200 139 -254 199 -547 416 -697 519 -319 215
-621 308 -1103 336 -290 17 -597 29 -685 27 -44 -1 -141 -2 -215 -4z m4 -263
l183 0 7 -182 c14 -369 24 -713 21 -717 -9 -9 -1663 1 -1705 10 -105 24 -140
60 -140 146 0 75 62 177 179 294 231 231 482 363 798 420 102 18 428 41 461
32 8 -1 96 -3 196 -3z m961 -51 c175 -15 367 -46 475 -76 207 -57 490 -208
722 -384 77 -59 96 -69 82 -47 -4 7 -3 8 5 4 6 -4 9 -11 6 -15 -2 -5 28 -37
69 -72 119 -104 197 -220 179 -265 -5 -14 -113 -15 -992 -9 -542 4 -991 8
-997 10 -12 3 -26 154 -43 460 -6 93 -13 171 -18 172 -6 2 -9 210 -4 242 1 6
382 -8 516 -20z m-5012 4 c-7 -2 -19 -2 -25 0 -7 3 -2 5 12 5 14 0 19 -2 13
-5z m44 1 c-3 -3 -12 -4 -19 -1 -8 3 -5 6 6 6 11 1 17 -2 13 -5z m106 -1 c-7
-2 -19 -2 -25 0 -7 3 -2 5 12 5 14 0 19 -2 13 -5z m-1376 -9 c-3 -3 -12 -4
-19 -1 -8 3 -5 6 6 6 11 1 17 -2 13 -5z m-252 -114 c-3 -5 -12 -10 -18 -10 -7
0 -6 4 3 10 19 12 23 12 15 0z m-95 -80 c0 -11 -4 -20 -9 -20 -5 0 -7 9 -4 20
3 11 7 20 9 20 2 0 4 -9 4 -20z m37 -16 c-3 -3 -12 -4 -19 -1 -8 3 -5 6 6 6
11 1 17 -2 13 -5z m40 0 c-3 -3 -12 -4 -19 -1 -8 3 -5 6 6 6 11 1 17 -2 13 -5z
m-91 -48 c-6 -19 -12 -33 -14 -31 -7 6 9 65 17 65 5 0 3 -15 -3 -34z m511 -72
c-3 -3 -12 -4 -19 -1 -8 3 -5 6 6 6 11 1 17 -2 13 -5z m1270 0 c-3 -3 -12 -4
-19 -1 -8 3 -5 6 6 6 11 1 17 -2 13 -5z m-1470 -30 c-3 -3 -12 -4 -19 -1 -8 3
-5 6 6 6 11 1 17 -2 13 -5z m8856 -1 c-7 -2 -19 -2 -25 0 -7 3 -2 5 12 5 14 0
19 -2 13 -5z m134 1 c-3 -3 -12 -4 -19 -1 -8 3 -5 6 6 6 11 1 17 -2 13 -5z
m-9330 -36 c-3 -7 -5 -2 -5 12 0 14 2 19 5 13 2 -7 2 -19 0 -25z m-10 -75 c-3
-10 -5 -2 -5 17 0 19 2 27 5 18 2 -10 2 -26 0 -35z m7888 -1 c-3 -3 -11 0 -18
7 -9 10 -8 11 6 5 10 -3 15 -9 12 -12z m1692 -27 c0 -8 -4 -12 -9 -9 -5 3 -6
10 -3 15 9 13 12 11 12 -6z m-9324 -2 c-7 -2 -19 -2 -25 0 -7 3 -2 5 12 5 14
0 19 -2 13 -5z m110 0 c-7 -2 -19 -2 -25 0 -7 3 -2 5 12 5 14 0 19 -2 13 -5z
m5534 -45 c-2 -13 -4 -5 -4 17 -1 22 1 32 4 23 2 -10 2 -28 0 -40z m-5910 -40
c-2 -18 -4 -6 -4 27 0 33 2 48 4 33 2 -15 2 -42 0 -60z m9728 72 c-3 -5 -11
-10 -16 -10 -6 0 -7 5 -4 10 3 6 11 10 16 10 6 0 7 -4 4 -10z m-8608 -16 c-3
-3 -12 -4 -19 -1 -8 3 -5 6 6 6 11 1 17 -2 13 -5z m216 -1 c-7 -2 -19 -2 -25
0 -7 3 -2 5 12 5 14 0 19 -2 13 -5z m54 -25 c-3 -7 -5 -2 -5 12 0 14 2 19 5
13 2 -7 2 -19 0 -25z m7513 28 c0 -2 -8 -10 -17 -17 -16 -13 -17 -12 -4 4 13
16 21 21 21 13z m327 -2 c-3 -3 -12 -4 -19 -1 -8 3 -5 6 6 6 11 1 17 -2 13 -5z
m81 -1 c-10 -2 -26 -2 -35 0 -10 3 -2 5 17 5 19 0 27 -2 18 -5z m-301 -25 c-3
-8 -6 -5 -6 6 -1 11 2 17 5 13 3 -3 4 -12 1 -19z m660 -10 c-3 -7 -5 -2 -5 12
0 14 2 19 5 13 2 -7 2 -19 0 -25z m-9340 -104 c-3 -3 -12 -4 -19 -1 -8 3 -5 6
6 6 11 1 17 -2 13 -5z m-80 -10 c-3 -3 -12 -4 -19 -1 -8 3 -5 6 6 6 11 1 17
-2 13 -5z m9150 -70 c-3 -3 -12 -4 -19 -1 -8 3 -5 6 6 6 11 1 17 -2 13 -5z
m-1704 -131 c-7 -2 -19 -2 -25 0 -7 3 -2 5 12 5 14 0 19 -2 13 -5z m44 1 c-3
-3 -12 -4 -19 -1 -8 3 -5 6 6 6 11 1 17 -2 13 -5z m2416 -305 c85 -12 154 -33
218 -65 135 -67 269 -266 212 -315 -32 -28 -83 -39 -183 -39 -150 0 -216 24
-300 109 -76 75 -110 148 -110 233 0 88 22 98 163 77z m172 -19 c3 -6 -1 -7
-9 -4 -18 7 -21 14 -7 14 6 0 13 -4 16 -10z m-7355 -66 c0 7 11 18 25 24 34
16 37 15 30 -7 -3 -11 1 -24 12 -32 15 -12 16 -12 10 3 -7 20 9 35 16 16 4
-10 8 -9 16 2 23 33 11 -26 -18 -85 -42 -86 -193 -238 -220 -221 -5 4 -13 1
-17 -5 -5 -8 -3 -9 6 -4 9 5 11 4 6 -3 -4 -7 -22 -12 -40 -12 -18 0 -47 -5
-64 -11 -27 -9 -34 -8 -49 7 -17 17 -17 18 0 11 9 -3 17 -2 17 3 0 6 -4 10 -8
10 -5 0 -14 10 -20 23 l-11 22 0 -22 c-1 -12 -4 -24 -8 -26 -5 -3 -6 15 -5 39
2 24 8 42 14 41 22 -5 33 31 20 66 -14 39 -17 130 -3 108 5 -7 14 -10 20 -7 6
4 9 11 6 16 -9 14 45 41 73 37 15 -2 21 -2 15 0 -20 7 -15 23 6 23 11 0 22 6
24 13 4 8 6 7 6 -3 1 -10 13 -16 38 -17 24 -1 32 1 24 7 -11 6 -10 9 5 14 11
3 7 4 -8 2 -34 -4 -36 2 -6 13 17 6 29 1 55 -25 18 -18 33 -27 33 -20z m8083
-91 c-7 -2 -19 -2 -25 0 -7 3 -2 5 12 5 14 0 19 -2 13 -5z m90 0 c-7 -2 -19
-2 -25 0 -7 3 -2 5 12 5 14 0 19 -2 13 -5z m142 -51 c-3 -3 -11 0 -18 7 -9 10
-8 11 6 5 10 -3 15 -9 12 -12z m1135 3 c-7 -8 -17 -12 -23 -8 -6 4 -3 9 9 14
27 11 28 11 14 -6z m137 9 c-3 -3 -12 -4 -19 -1 -8 3 -5 6 6 6 11 1 17 -2 13
-5z m-8470 -20 c-3 -3 -12 -4 -19 -1 -8 3 -5 6 6 6 11 1 17 -2 13 -5z m176 -1
c-7 -2 -21 -2 -30 0 -10 3 -4 5 12 5 17 0 24 -2 18 -5z m6325 -18 c-3 -3 -9 2
-12 12 -6 14 -5 15 5 6 7 -7 10 -15 7 -18z m-7921 -17 c-3 -7 -5 -2 -5 12 0
14 2 19 5 13 2 -7 2 -19 0 -25z m6430 26 c-3 -3 -12 -4 -19 -1 -8 3 -5 6 6 6
11 1 17 -2 13 -5z m126 -1 c-13 -2 -33 -2 -45 0 -13 2 -3 4 22 4 25 0 35 -2
23 -4z m-5266 -9 c-3 -3 -12 -4 -19 -1 -8 3 -5 6 6 6 11 1 17 -2 13 -5z m410
0 c-3 -3 -12 -4 -19 -1 -8 3 -5 6 6 6 11 1 17 -2 13 -5z m4676 -1 c-7 -2 -19
-2 -25 0 -7 3 -2 5 12 5 14 0 19 -2 13 -5z m292 -3 c13 -6 5 -7 -25 -3 -25 3
-47 7 -49 9 -9 8 55 2 74 -6z m-5415 -4 c0 -2 -7 -7 -16 -10 -8 -3 -12 -2 -9
4 6 10 25 14 25 6z m5077 -2 c-3 -3 -12 -4 -19 -1 -8 3 -5 6 6 6 11 1 17 -2
13 -5z m1813 2 c0 -2 -7 -7 -16 -10 -8 -3 -12 -2 -9 4 6 10 25 14 25 6z m560
-22 c0 -2 -9 0 -20 6 -11 6 -20 13 -20 16 0 2 9 0 20 -6 11 -6 20 -13 20 -16z
m-2413 10 c-3 -3 -12 -4 -19 -1 -8 3 -5 6 6 6 11 1 17 -2 13 -5z m440 0 c-3
-3 -12 -4 -19 -1 -8 3 -5 6 6 6 11 1 17 -2 13 -5z m1211 -19 c-3 -3 -9 2 -12
12 -6 14 -5 15 5 6 7 -7 10 -15 7 -18z m-1143 -5 c3 -6 -1 -7 -9 -4 -18 7 -21
14 -7 14 6 0 13 -4 16 -10z m-8638 -32 c-3 -8 -6 -5 -6 6 -1 11 2 17 5 13 3
-3 4 -12 1 -19z m11086 15 c-7 -2 -19 -2 -25 0 -7 3 -2 5 12 5 14 0 19 -2 13
-5z m-7343 -29 c0 -2 -9 0 -20 6 -11 6 -20 13 -20 16 0 2 9 0 20 -6 11 -6 20
-13 20 -16z m7277 20 c-3 -3 -12 -4 -19 -1 -8 3 -5 6 6 6 11 1 17 -2 13 -5z
m198 -4 c3 -6 -1 -7 -9 -4 -18 7 -21 14 -7 14 6 0 13 -4 16 -10z m625 0 c0 -5
-2 -10 -4 -10 -3 0 -8 5 -11 10 -3 6 -1 10 4 10 6 0 11 -4 11 -10z m-3080 -36
c0 -2 -9 0 -20 6 -11 6 -20 13 -20 16 0 2 9 0 20 -6 11 -6 20 -13 20 -16z
m3077 10 c-3 -3 -12 -4 -19 -1 -8 3 -5 6 6 6 11 1 17 -2 13 -5z m-987 -19
c-14 -8 -29 -14 -35 -14 -5 0 1 6 15 14 14 8 30 14 35 14 6 0 -1 -6 -15 -14z
m-2955 -5 c-3 -5 -12 -10 -18 -10 -7 0 -6 4 3 10 19 12 23 12 15 0z m2015 6
c0 -3 -4 -8 -10 -11 -5 -3 -10 -1 -10 4 0 6 5 11 10 11 6 0 10 -2 10 -4z
m-1075 -46 c10 -11 16 -20 13 -20 -3 0 -13 9 -23 20 -10 11 -16 20 -13 20 3 0
13 -9 23 -20z m2042 -27 c-3 -10 -5 -4 -5 12 0 17 2 24 5 18 2 -7 2 -21 0 -30z
m-3113 -48 c-26 -30 -50 -55 -52 -55 -6 0 18 29 62 78 48 52 41 37 -10 -23z
m-4974 42 c0 -2 -17 -19 -37 -38 l-37 -34 30 37 c25 31 44 46 44 35z m6145
-67 c10 -11 16 -20 13 -20 -3 0 -13 9 -23 20 -10 11 -16 20 -13 20 3 0 13 -9
23 -20z m2922 -6 c-3 -3 -12 -4 -19 -1 -8 3 -5 6 6 6 11 1 17 -2 13 -5z
m-8382 -31 c205 -71 330 -312 281 -542 -31 -140 -112 -243 -245 -309 -73 -36
-77 -37 -190 -37 -110 0 -120 2 -184 32 -116 55 -208 169 -236 294 -15 65 -13
177 4 244 45 171 187 307 348 334 63 10 168 3 222 -16z m-3935 8 c-49 -7 -52
-13 -19 -42 12 -10 19 -22 16 -25 -7 -8 -46 36 -47 52 0 19 12 24 54 22 l41
-1 -45 -6z m83 2 c-7 -2 -19 -2 -25 0 -7 3 -2 5 12 5 14 0 19 -2 13 -5z m150
0 c-13 -2 -35 -2 -50 0 -16 2 -5 4 22 4 28 0 40 -2 28 -4z m945 0 c-10 -2 -26
-2 -35 0 -10 3 -2 5 17 5 19 0 27 -2 18 -5z m75 0 c-7 -2 -19 -2 -25 0 -7 3
-2 5 12 5 14 0 19 -2 13 -5z m150 0 c-7 -2 -21 -2 -30 0 -10 3 -4 5 12 5 17 0
24 -2 18 -5z m7564 -44 c74 -37 169 -132 206 -205 35 -69 51 -160 44 -250 -10
-130 -91 -267 -203 -344 -114 -79 -289 -93 -418 -32 -159 75 -256 228 -256
406 0 136 45 249 137 343 125 129 329 163 490 82z m1790 45 c-3 -3 -12 -4 -19
-1 -8 3 -5 6 6 6 11 1 17 -2 13 -5z m356 -1 c-7 -2 -19 -2 -25 0 -7 3 -2 5 12
5 14 0 19 -2 13 -5z m395 0 c-15 -2 -42 -2 -60 0 -18 2 -6 4 27 4 33 0 48 -2
33 -4z m-261 -50 c-3 -10 -5 -4 -5 12 0 17 2 24 5 18 2 -7 2 -21 0 -30z
m-8112 -3 c-9 -16 -18 -30 -21 -30 -2 0 2 14 11 30 9 17 18 30 21 30 2 0 -2
-13 -11 -30z m-3113 -45 c2 3 5 -2 5 -10 0 -19 0 -19 -23 7 -12 14 -13 18 -3
10 9 -6 18 -10 21 -7z m595 -52 c-3 -10 -5 -4 -5 12 0 17 2 24 5 18 2 -7 2
-21 0 -30z m10050 -9 c-3 -3 -12 -4 -19 -1 -8 3 -5 6 6 6 11 1 17 -2 13 -5z
m470 0 c-3 -3 -12 -4 -19 -1 -8 3 -5 6 6 6 11 1 17 -2 13 -5z m71 -1 c-10 -2
-26 -2 -35 0 -10 3 -2 5 17 5 19 0 27 -2 18 -5z m140 0 c-10 -2 -28 -2 -40 0
-13 2 -5 4 17 4 22 1 32 -1 23 -4z m49 1 c-3 -3 -12 -4 -19 -1 -8 3 -5 6 6 6
11 1 17 -2 13 -5z m310 0 c-3 -3 -12 -4 -19 -1 -8 3 -5 6 6 6 11 1 17 -2 13
-5z m181 -1 c-10 -2 -28 -2 -40 0 -13 2 -5 4 17 4 22 1 32 -1 23 -4z m165 0
c-13 -2 -35 -2 -50 0 -16 2 -5 4 22 4 28 0 40 -2 28 -4z m-11958 -23 c-3 -5
-12 -10 -18 -10 -7 0 -6 4 3 10 19 12 23 12 15 0z m7968 -15 c-3 -9 -8 -14
-10 -11 -3 3 -2 9 2 15 9 16 15 13 8 -4z m-3546 -47 c-3 -8 -6 -5 -6 6 -1 11
2 17 5 13 3 -3 4 -12 1 -19z m-4307 -18 c0 -5 -5 -10 -11 -10 -5 0 -7 5 -4 10
3 6 8 10 11 10 2 0 4 -4 4 -10z m-5 -60 c10 -11 16 -20 13 -20 -3 0 -13 9 -23
20 -10 11 -16 20 -13 20 3 0 13 -9 23 -20z m4332 -32 c-3 -7 -5 -2 -5 12 0 14
2 19 5 13 2 -7 2 -19 0 -25z m5020 -20 c-3 -8 -6 -5 -6 6 -1 11 2 17 5 13 3
-3 4 -12 1 -19z m-8884 -5 c-7 -2 -19 -2 -25 0 -7 3 -2 5 12 5 14 0 19 -2 13
-5z m130 0 c-7 -2 -19 -2 -25 0 -7 3 -2 5 12 5 14 0 19 -2 13 -5z m2224 -75
c-2 -18 -4 -6 -4 27 0 33 2 48 4 33 2 -15 2 -42 0 -60z m2930 60 c-3 -8 -6 -5
-6 6 -1 11 2 17 5 13 3 -3 4 -12 1 -19z m3600 -130 c-3 -8 -6 -5 -6 6 -1 11 2
17 5 13 3 -3 4 -12 1 -19z m-8700 -54 c-3 -3 -12 -4 -19 -1 -8 3 -5 6 6 6 11
1 17 -2 13 -5z m61 -1 c-10 -2 -26 -2 -35 0 -10 3 -2 5 17 5 19 0 27 -2 18 -5z
m7099 -35 c-3 -7 -5 -2 -5 12 0 14 2 19 5 13 2 -7 2 -19 0 -25z m108 -234 c9
-15 12 -23 6 -20 -11 7 -35 46 -28 46 3 0 12 -12 22 -26z m-6788 -10 c-3 -3
-12 -4 -19 -1 -8 3 -5 6 6 6 11 1 17 -2 13 -5z m491 -31 c-10 -2 -26 -2 -35 0
-10 3 -2 5 17 5 19 0 27 -2 18 -5z m145 0 c-7 -2 -21 -2 -30 0 -10 3 -4 5 12
5 17 0 24 -2 18 -5z m74 1 c-3 -3 -12 -4 -19 -1 -8 3 -5 6 6 6 11 1 17 -2 13
-5z m276 -1 c-13 -2 -35 -2 -50 0 -16 2 -5 4 22 4 28 0 40 -2 28 -4z m130 0
c-7 -2 -19 -2 -25 0 -7 3 -2 5 12 5 14 0 19 -2 13 -5z m70 0 c-7 -2 -19 -2
-25 0 -7 3 -2 5 12 5 14 0 19 -2 13 -5z m5641 -8 c3 -9 0 -15 -8 -15 -7 0 -13
7 -13 15 0 8 4 15 8 15 4 0 9 -7 13 -15z m-2181 -2 c-7 -2 -19 -2 -25 0 -7 3
-2 5 12 5 14 0 19 -2 13 -5z m315 0 c-10 -2 -26 -2 -35 0 -10 3 -2 5 17 5 19
0 27 -2 18 -5z m95 0 c-13 -2 -33 -2 -45 0 -13 2 -3 4 22 4 25 0 35 -2 23 -4z
m130 0 c-7 -2 -19 -2 -25 0 -7 3 -2 5 12 5 14 0 19 -2 13 -5z m360 0 c-7 -2
-21 -2 -30 0 -10 3 -4 5 12 5 17 0 24 -2 18 -5z"/>
<path d="M3041 1714 c0 -11 3 -14 6 -6 3 7 2 16 -1 19 -3 4 -6 -2 -5 -13z"/>
<path d="M3010 1545 c-7 -9 -11 -17 -9 -20 3 -2 10 5 17 15 14 24 10 26 -8 5z"/>
<path d="M4143 981 c-26 -12 -52 -36 -70 -62 -25 -38 -28 -51 -28 -124 0 -72
3 -86 27 -123 75 -112 227 -100 284 22 81 174 -57 360 -213 287z"/>
<path d="M9125 971 c-30 -17 -85 -75 -85 -89 -1 -4 -5 -26 -9 -50 -17 -86 22
-186 88 -225 47 -28 120 -23 168 12 118 85 107 292 -18 356 -39 21 -108 19
-144 -4z"/>
<path d="M9738 3253 c7 -3 16 -2 19 1 4 3 -2 6 -13 5 -11 0 -14 -3 -6 -6z"/>
<path d="M10808 3183 c12 -2 32 -2 45 0 12 2 2 4 -23 4 -25 0 -35 -2 -22 -4z"/>
<path d="M11105 2829 l0 -316 180 -7 c99 -4 223 -12 275 -17 52 -6 284 -14
515 -17 l420 -7 2 -165 c1 -91 5 -165 10 -165 47 -3 620 -110 910 -169 l112
-24 0 338 1 338 -27 10 c-51 19 -90 21 -139 8 -53 -15 -127 -53 -159 -84 -11
-10 -27 -21 -36 -24 -11 -4 -15 -15 -13 -35 3 -26 3 -26 -8 5 -14 42 -80 117
-131 149 -64 40 -116 55 -200 54 -95 0 -150 -23 -251 -105 l-69 -56 -32 48
c-18 26 -47 74 -65 107 -28 51 -65 113 -214 365 -35 60 -34 60 -178 60 -109 0
-475 10 -833 23 l-70 2 0 -316z m1692 -145 c-3 -3 -12 -4 -19 -1 -8 3 -5 6 6
6 11 1 17 -2 13 -5z m56 -1 c-7 -2 -21 -2 -30 0 -10 3 -4 5 12 5 17 0 24 -2
18 -5z m627 -57 c0 -11 -19 -15 -25 -6 -3 5 1 10 9 10 9 0 16 -2 16 -4z m-53
-78 c-3 -8 -6 -5 -6 6 -1 11 2 17 5 13 3 -3 4 -12 1 -19z m40 16 c-3 -3 -12
-4 -19 -1 -8 3 -5 6 6 6 11 1 17 -2 13 -5z m-950 -331 c-1 -49 -3 -9 -3 87 0
96 2 136 3 88 2 -49 2 -127 0 -175z m830 75 c-3 -8 -6 -5 -6 6 -1 11 2 17 5
13 3 -3 4 -12 1 -19z m140 -84 c-3 -3 -12 -4 -19 -1 -8 3 -5 6 6 6 11 1 17 -2
13 -5z m-744 -61 c-7 -2 -19 -2 -25 0 -7 3 -2 5 12 5 14 0 19 -2 13 -5z m570
0 c-7 -2 -19 -2 -25 0 -7 3 -2 5 12 5 14 0 19 -2 13 -5z m154 -175 c-3 -7 -5
-2 -5 12 0 14 2 19 5 13 2 -7 2 -19 0 -25z"/>
<path d="M11554 2242 c-35 -23 -51 -104 -55 -266 l-3 -120 92 -1 92 -1 0 120
c0 130 -18 219 -52 255 -19 21 -53 27 -74 13z m-37 -239 c-3 -10 -5 -2 -5 17
0 19 2 27 5 18 2 -10 2 -26 0 -35z m150 -70 c-2 -21 -4 -6 -4 32 0 39 2 55 4
38 2 -18 2 -50 0 -70z m-150 -15 c-2 -13 -4 -3 -4 22 0 25 2 35 4 23 2 -13 2
-33 0 -45z m153 -38 c0 -5 -5 -10 -11 -10 -5 0 -7 5 -4 10 3 6 8 10 11 10 2 0
4 -4 4 -10z m-102 -7 c-10 -2 -28 -2 -40 0 -13 2 -5 4 17 4 22 1 32 -1 23 -4z"/>
<path d="M12014 2214 c-30 -45 -44 -124 -44 -245 l0 -117 91 2 91 1 -4 135
c-5 137 -18 191 -55 232 -23 26 -60 23 -79 -8z m-17 -121 c-3 -10 -5 -4 -5 12
0 17 2 24 5 18 2 -7 2 -21 0 -30z m-10 -165 c-2 -18 -4 -6 -4 27 0 33 2 48 4
33 2 -15 2 -42 0 -60z m101 45 c-10 -2 -28 -2 -40 0 -13 2 -5 4 17 4 22 1 32
-1 23 -4z m49 -25 c-3 -8 -6 -5 -6 6 -1 11 2 17 5 13 3 -3 4 -12 1 -19z m-42
-72 c11 -2 -10 -4 -47 -5 -38 0 -68 2 -68 7 0 7 67 6 115 -2z"/>
<path d="M12504 1920 c0 -113 2 -159 3 -102 2 56 2 148 0 205 -1 56 -3 10 -3
-103z"/>
<path d="M42 2075 c0 -16 2 -22 5 -12 2 9 2 23 0 30 -3 6 -5 -1 -5 -18z"/>
<path d="M101 1794 c0 -11 3 -14 6 -6 3 7 2 16 -1 19 -3 4 -6 -2 -5 -13z"/>
<path d="M12501 1644 c0 -11 3 -14 6 -6 3 7 2 16 -1 19 -3 4 -6 -2 -5 -13z"/>
<path d="M236 1447 c3 -10 9 -15 12 -12 3 3 0 11 -7 18 -10 9 -11 8 -5 -6z"/>
<path d="M256 1407 c3 -10 9 -15 12 -12 3 3 0 11 -7 18 -10 9 -11 8 -5 -6z"/>
<path d="M13330 1340 c-12 -16 -19 -30 -16 -30 2 0 14 14 26 30 12 17 19 30
16 30 -2 0 -14 -13 -26 -30z"/>
<path d="M13259 1243 c-13 -16 -12 -17 4 -4 16 13 21 21 13 21 -2 0 -10 -8
-17 -17z"/>
<path d="M13229 1203 c-13 -16 -12 -17 4 -4 9 7 17 15 17 17 0 8 -8 3 -21 -13z"/>
<path d="M13179 1143 c-13 -16 -12 -17 4 -4 16 13 21 21 13 21 -2 0 -10 -8
-17 -17z"/>
<path d="M13029 983 l-34 -38 38 34 c34 33 42 41 34 41 -2 0 -19 -17 -38 -37z"/>
<path d="M12854 828 l-19 -23 23 19 c21 18 27 26 19 26 -2 0 -12 -10 -23 -22z"/>
<path d="M12694 714 c-18 -14 -18 -15 4 -4 12 6 22 13 22 15 0 8 -5 6 -26 -11z"/>
<path d="M12230 490 c-8 -5 -10 -10 -5 -10 6 0 17 5 25 10 8 5 11 10 5 10 -5
0 -17 -5 -25 -10z"/>
<path d="M12088 443 c7 -3 16 -2 19 1 4 3 -2 6 -13 5 -11 0 -14 -3 -6 -6z"/>
<path d="M12018 423 c7 -3 16 -2 19 1 4 3 -2 6 -13 5 -11 0 -14 -3 -6 -6z"/>
<path d="M11868 393 c7 -3 16 -2 19 1 4 3 -2 6 -13 5 -11 0 -14 -3 -6 -6z"/>
<path d="M11828 383 c7 -3 16 -2 19 1 4 3 -2 6 -13 5 -11 0 -14 -3 -6 -6z"/>
<path d="M11728 373 c7 -3 16 -2 19 1 4 3 -2 6 -13 5 -11 0 -14 -3 -6 -6z"/>
<path d="M11623 363 c9 -2 25 -2 35 0 9 3 1 5 -18 5 -19 0 -27 -2 -17 -5z"/>
<path d="M11323 353 c20 -2 54 -2 75 0 20 2 3 4 -38 4 -41 0 -58 -2 -37 -4z"/>
<path d="M11458 353 c12 -2 32 -2 45 0 12 2 2 4 -23 4 -25 0 -35 -2 -22 -4z"/>
<path d="M9878 343 c18 -2 45 -2 60 0 15 2 0 4 -33 4 -33 0 -45 -2 -27 -4z"/>
<path d="M10178 343 c83 -2 221 -2 305 0 83 1 15 3 -153 3 -168 0 -236 -2
-152 -3z"/>
<path d="M10658 343 c12 -2 30 -2 40 0 9 3 -1 5 -23 4 -22 0 -30 -2 -17 -4z"/>
<path d="M10768 343 c12 -2 32 -2 45 0 12 2 2 4 -23 4 -25 0 -35 -2 -22 -4z"/>
</g>
</svg>
